<?xml version="1.0" encoding="UTF-8"?>
<svg id="Layer_2" data-name="Layer 2" xmlns="http://www.w3.org/2000/svg" viewBox="0 0 300 300">
  <defs>
    <style>
      .cls-1 {
        fill: currentColor;
      }

      .cls-2, .cls-3 {
        fill: none;
      }

      .cls-3 {
        stroke: currentColor;
        stroke-miterlimit: 10;
        stroke-width: 2.07px;
      }

      .cls-4 {
        fill: backgroundColor;
      }
    </style>
  </defs>
  <g id="Layer_1-2" data-name="Layer 1">
    <g id="favicon">
      <rect id="invisible" class="cls-2" x="0" width="300" height="300"/>
      <g id="background">
        <path class="cls-4" d="M62.69,206.84c-11.2,5.27-1.52,18.82-18.63,24.06-6.46,1.98-10.44-2.4-16.22-5.43-4.52-2.37-13.05.37-15.17-6.42-1.89-6.07-5.58-9.89-10.74-14.07-3.94-3.19-.93-10.64.8-14.75,8.25-19.66,18.03-36.9,30.57-53.83,10.37-14.01,17.11-29.22,21.51-46.19.87-3.34,4.54-7.18,6.93-9.6,1.74-11.5,5.49-21.97,12.88-31.05-2.33-6-12.23-29.21-8.95-32.85,1.55-1.72,10.71,10.91,16.57,12.61-.14-10.92-4.18-12.81-5.58-20.08-.91-4.73,18.1,5.45,23.16,12.22,4.54,6.08,6.59,13.33,9.31,20.11,16.92-9.24,49.27-7.3,65.75-.97,20.6,7.9,39.92,17.04,59.37,27.27,17.33,9.11,31.88,20.8,46.77,33.14l17.88,14.81c7.53,69.56-24.34,137.39-83.29,176.18-21.1-37.88-37.23-76.37-47.43-117.67l-24.44-13.56c-10.28,12.91-23.92,19.24-40.36,18.44-6.62,8.66-14.79,15.46-24.74,20.15l-15.95,7.51Z"/>
      </g>
      <circle id="text_1" class="cls-3" cx="73.95" cy="116.78" r="13.89"/>
      <circle id="text_2" class="cls-1" cx="73.95" cy="116.83" r="6.76"/>
    </g>
  </g>
</svg>