<?xml version="1.0" encoding="UTF-8"?>
<svg id="Layer_2" data-name="Layer 2" xmlns="http://www.w3.org/2000/svg" viewBox="0 0 293.72 293.72">
  <defs>
    <style>
      .cls-1 { fill: __TEXT_COLOR__; }
      .cls-2 { stroke: __TEXT_COLOR__; stroke-width: 2px; fill: none; stroke-miterlimit: 10; }
      .cls-3, .cls-4 { fill: none; }
      
      /* Dots Bar and Outer Stroke - Level 3 */
      .cls-4 { stroke: __LEVEL3_COLOR__; stroke-width: 8px; stroke-miterlimit: 10; }
      .cls-10 { fill: __LEVEL3_COLOR__; }
      
      /* Background fill - Theme BG */
      .cls-5 { fill: __BG_COLOR__; stroke: __LEVEL3_COLOR__; stroke-width: 8px; stroke-miterlimit: 10; }
      
      /* Dots and ALL Bars - Accent Color */
      .cls-6 { fill: __ACCENT_COLOR__; }
      
      /* Horse - Level 3 */
      .cls-14 { fill: __LEVEL3_COLOR__; }
      
      .cls-13 { clip-path: url(#clippath); }

      /* Responsive Logic: Hide bars if container is small */
      @media (max-width: 100px) {
        #bars { display: none; }
      }
    </style>
    <clipPath id="clippath">
      <rect class="cls-3" x="5.75" y="5.75" width="282.23" height="282.23" rx="6.03" ry="6.03"/>
    </clipPath>
  </defs>
  <g id="Layer_1-2" data-name="Layer 1">
    <rect id="background" class="cls-5" x="4" y="4" width="285.72" height="285.72" rx="9.85" ry="9.85"/>
    <path id="dots_bar" class="cls-10" d="M279.87,3.92H13.85c-5.42,0-9.85,4.43-9.85,9.85v40.65h285.72V13.77c0-5.42-4.43-9.85-9.85-9.85Z"/>
    <g id="dots">
      <circle class="cls-6" cx="19.63" cy="26.85" r="6.52"/>
      <circle class="cls-6" cx="37.84" cy="26.85" r="6.52"/>
      <circle class="cls-6" cx="56.05" cy="26.85" r="6.52"/>
    </g>
    <g class="cls-13">
      <g id="bars">
        <rect class="cls-6" x="30.69" y="122.08" width="55.91" height="8.39" rx="4.19" ry="4.19"/>
        <rect class="cls-6" x="30.69" y="207.39" width="55.91" height="8.39" rx="4.19" ry="4.19"/>
        <rect class="cls-6" x="67.52" y="139.01" width="91.72" height="8.39" rx="4.2" ry="4.2"/>
        <rect class="cls-6" x="40.42" y="139.04" width="20.07" height="8.39" rx="4.2" ry="4.2"/>
        <rect class="cls-6" x="97.53" y="190.2" width="61.71" height="8.39" rx="4.2" ry="4.2"/>
        <rect class="cls-6" x="40.42" y="190.23" width="51.07" height="8.39" rx="4.2" ry="4.2"/>
        <rect class="cls-6" x="97.53" y="156.01" width="50.8" height="8.39" rx="4.2" ry="4.2"/>
        <rect class="cls-6" x="40.42" y="156.04" width="51.07" height="8.39" rx="4.2" ry="4.2"/>
        <rect class="cls-6" x="82.98" y="173.07" width="42.05" height="8.39" rx="4.2" ry="4.2"/>
        <rect class="cls-6" x="40.42" y="173.1" width="34.27" height="8.39" rx="4.2" ry="4.2"/>
        <rect class="cls-6" x="81.99" y="105.12" width="44.04" height="8.39" rx="4.2" ry="4.2"/>
        <rect class="cls-6" x="29.82" y="83.09" width="29.05" height="6.16" rx="3.08" ry="3.08" transform="translate(-52.45 81.49) rotate(-60)"/>
        <path class="cls-6" d="M27.33,86.76c-.33-.33-.33-.87,0-1.2l4.61-4.61c1.2-1.2,1.2-3.16,0-4.35s-3.16-1.2-4.35,0l-7.24,7.24c-.64.64-.91,1.48-.87,2.32-.04.84.23,1.69.87,2.32l7.24,7.24c1.2,1.2,3.16,1.2,4.35,0s1.2-3.16,0-4.35l-4.61-4.61Z"/>
        <path class="cls-6" d="M61.36,85.57c.33.33.33.87,0,1.2l-4.61,4.61c-1.2,1.2-1.2,3.16,0,4.35s3.16,1.2,4.35,0l7.24-7.24c.64-.64.91-1.48.87-2.32.04-.84-.23-1.69-.87-2.32l-7.24-7.24c-1.2-1.2-3.16-1.2-4.35,0s-1.2,3.16,0,4.35l4.61,4.61Z"/>
        <rect class="cls-6" x="29.82" y="251.62" width="29.05" height="6.16" rx="3.08" ry="3.08" transform="translate(-198.41 165.76) rotate(-60)"/>
        <path class="cls-6" d="M27.33,255.3c-.33-.33-.33-.87,0-1.2l4.61-4.61c1.2-1.2,1.2-3.16,0-4.35s-3.16-1.2-4.35,0l-7.24,7.24c-.64.64-.91,1.48-.87,2.32-.04.84.23,1.69.87,2.32l7.24,7.24c1.2,1.2,3.16,1.2,4.35,0s1.2-3.16,0-4.35l-4.61-4.61Z"/>
        <path class="cls-6" d="M61.36,254.11c.33.33.33.87,0,1.2l-4.61,4.61c-1.2,1.2-1.2,3.16,0,4.35s3.16,1.2,4.35,0l7.24-7.24c.64-.64.91-1.48.87-2.32.04-.84-.23-1.69-.87-2.32l-7.24-7.24c-1.2-1.2-3.16-1.2-4.35,0s-1.2,3.16,0,4.35l4.61,4.61Z"/>
        <rect class="cls-6" x="20.13" y="105.12" width="56.06" height="8.39" rx="4.2" ry="4.2"/>
        <rect class="cls-6" x="54.47" y="224.55" width="71.56" height="8.39" rx="4.2" ry="4.2"/>
        <rect class="cls-6" x="20.13" y="224.55" width="25.12" height="8.39" rx="4.2" ry="4.2"/>
      </g>
      <g id="horse">
        <path class="cls-14" d="M290.29,333.34c-21.38-38.4-36.35-75.48-45.74-113.33l-22.46-12.46c-9.56,11.66-21.85,17.57-36.54,17.57-.72,0-1.44-.01-2.16-.04-6.54,8.42-14.58,14.92-23.92,19.32l-15.39,7.25c-4.33,2.04-5.08,5.43-5.94,9.36-1.12,5.11-2.4,10.91-12.16,13.9-1.13.35-2.26.52-3.35.52-3.54,0-6.37-1.78-9.38-3.66-1.17-.73-2.38-1.49-3.67-2.17-1.36-.71-3.23-.89-5.22-1.09-3.93-.38-8.38-.81-9.9-5.7-1.73-5.53-5.12-9.11-10.03-13.09-4.47-3.62-1.13-11.57.48-15.39,8.02-19.12,17.43-35.69,29.6-52.13,9.44-12.76,16.18-27.22,20.58-44.21.81-3.14,3.82-6.54,6.71-9.48,1.85-11.94,5.85-21.65,12.22-29.65-.22-.55-.48-1.21-.78-1.96-6.41-15.99-10.13-27.25-7.45-30.23.28-.31.68-.49,1.11-.49,1.33,0,2.96,1.55,6.25,4.78,2.6,2.56,5.75,5.65,8.31,7.02-.28-5.23-1.6-8.05-2.88-10.79-.92-1.98-1.88-4.02-2.43-6.87-.16-.82.1-1.35.35-1.65.39-.47,1-.71,1.81-.71,4.34,0,17.76,7.72,21.97,13.36,3.49,4.67,5.49,10.02,7.42,15.2.42,1.14.85,2.27,1.28,3.39,7.34-3.68,18.01-5.7,30.25-5.7s24.47,1.96,33.01,5.23c18.29,7.02,36.52,15.39,57.38,26.35,16.61,8.73,30.33,19.69,45.29,32.08l17.56,14.55.04.4c7.34,67.78-23.62,133.26-80.78,170.88l-.9.59-.52-.94Z"/>
      </g>
      <g id="eye">
        <circle class="cls-2" cx="154.52" cy="163.86" r="13.4"/>
        <circle class="cls-1" cx="154.52" cy="163.91" r="6.52"/>
      </g>
    </g>
    <rect class="cls-4" x="4" y="4" width="285.72" height="285.72" rx="9.85" ry="9.85"/>
  </g>
</svg>